<svg width="51" height="50" viewBox="0 0 51 50" fill="none" xmlns="http://www.w3.org/2000/svg">
<path d="M18.582 37.2818C16.0268 34.8862 13.9734 32.0813 12.0126 29.1753C11.7678 29.4165 11.8445 29.6515 11.8433 29.8598C11.8347 30.9742 11.8676 32.0886 11.8323 33.2018C11.7885 34.6097 12.1636 35.9494 12.3889 37.3171C12.6118 38.6727 13.1391 39.9308 13.4814 41.2462C13.6361 41.8393 13.9819 42.3825 14.2487 42.944C15.1816 44.9085 16.4519 46.6404 17.9463 48.2066C18.4164 48.6987 18.99 49.092 19.515 49.5317C19.6343 49.6316 19.75 49.7339 19.9778 49.9312C19.3773 49.9945 18.945 49.7997 18.5626 49.6316C16.704 48.8144 14.8722 47.935 13.1391 46.8693C11.6862 45.9754 10.2344 45.0826 8.96165 43.9293C8.18583 43.2265 7.33938 42.6066 6.6342 41.8198C5.68056 40.7541 4.76834 39.6604 3.93893 38.4961C3.02305 37.21 2.30326 35.7996 1.74545 34.3478C1.15353 32.8047 0.644444 31.1983 0.65906 29.4944C0.674893 27.631 0.662713 25.7676 0.666367 23.9041C0.666367 23.6825 0.671239 23.4572 0.705341 23.2392C0.751622 22.9395 0.833227 22.8238 1.17303 23.0492C2.64793 24.0284 4.11675 25.0137 5.53563 26.0708C6.0094 26.424 6.34434 26.4593 6.81202 25.9844C8.96287 23.7994 11.2075 21.7033 13.3206 19.4831C14.5044 18.2396 15.3375 16.7196 15.8673 15.0657C16.2388 13.9062 16.5298 12.7431 16.6431 11.5069C16.7223 10.6482 16.7722 9.78595 16.8392 8.92488C16.9403 7.61439 17.6126 6.54262 18.4237 5.58289C19.7671 3.99472 21.3248 2.61116 22.8326 1.18131C24.6497 -0.542051 27.3487 -0.314299 29.0623 1.43829C30.0293 2.42725 31.123 3.29807 32.062 4.32234C33.2958 5.66815 34.4321 7.04806 34.7293 8.96507C34.8413 9.68852 34.9193 10.3986 34.9266 11.1232C34.9449 13.0171 35.5684 14.7283 36.3284 16.4443C37.1932 18.3955 38.6559 19.7985 40.1271 21.2393C41.669 22.7471 43.1634 24.3036 44.6712 25.8467C45.2022 26.3887 45.4397 26.4228 46.0804 25.9831C47.5078 25.0027 48.9425 24.0332 50.3589 23.0358C50.6622 22.8214 50.7487 22.9395 50.7998 23.2075C50.8376 23.4048 50.8522 23.6094 50.8497 23.8104C50.8217 26.1987 50.9557 28.5895 50.7389 30.9742C50.6537 31.9181 50.3492 32.8218 50.0471 33.7109C49.6854 34.7753 49.2104 35.796 48.6575 36.7849C48.1045 37.7726 47.442 38.6788 46.7953 39.6008C45.6979 41.1658 44.3387 42.4909 42.8833 43.7003C41.7275 44.6612 40.5327 45.5722 39.2173 46.3432C37.6779 47.2457 36.1701 48.1932 34.5356 48.9179C33.7854 49.2504 33.0364 49.5865 32.2837 49.9129C32.1205 49.9836 31.9074 50.0822 31.7965 49.8788C31.693 49.6913 31.9244 49.6072 32.0316 49.5061C32.7221 48.8582 33.5601 48.3808 34.1593 47.6257C35.1069 46.4345 36.0471 45.2507 36.8034 43.911C37.5792 42.536 38.1468 41.0793 38.6059 39.5959C38.9336 38.5387 39.1077 37.4048 39.3732 36.327C39.9189 34.1128 39.5267 31.9023 39.6716 29.6978C39.6814 29.5492 39.7216 29.3714 39.5304 29.2253C38.9518 30.04 38.4013 30.8695 37.796 31.6574C36.717 33.0629 35.7316 34.5427 34.4821 35.8154C34.1008 36.204 33.7744 36.6461 33.4212 37.0614C33.336 37.1613 33.269 37.35 33.0973 37.2307C32.9633 37.1369 32.9913 36.9676 33.0705 36.8434C33.4651 36.2308 33.6941 35.5292 34.0534 34.9069C34.8012 33.6159 35.0947 32.1714 35.4552 30.7732C35.6732 29.928 35.8169 28.9804 35.7584 28.0889C35.5624 25.0892 34.761 22.3111 32.4688 20.1675C32.101 19.8229 31.7442 19.466 31.3812 19.1153C31.0913 18.8364 30.8124 18.8108 30.4763 19.0775C29.8101 19.6061 29.2084 20.2029 28.6056 20.7972C27.7737 21.6193 26.9321 22.4317 26.1113 23.2647C25.8116 23.568 25.6095 23.4693 25.3537 23.2136C24.042 21.9043 22.7108 20.6133 21.4028 19.2992C20.8705 18.7645 20.6233 18.7304 20.0277 19.2285C18.6442 20.3843 17.5882 21.7886 16.8696 23.4401C16.3727 24.5825 15.9172 25.7359 15.9611 27.0208C15.9891 27.8295 15.972 28.6406 15.9672 29.4506C15.9623 30.3689 16.2278 31.2251 16.4836 32.0971C16.9098 33.5501 17.481 34.9349 18.1485 36.2892C18.3068 36.6107 18.6064 36.8568 18.582 37.2818Z" fill="#f7f7f7"/>
<path d="M19.2531 25.3474C19.7841 26.1634 19.9656 26.9953 20.3212 27.7516C21.3163 29.8635 22.5257 31.8182 24.204 33.46C24.4463 33.6963 24.7143 33.8522 25.0675 33.8205C25.8397 33.7523 26.6435 34.002 27.3742 33.527C27.9089 33.1799 28.1147 32.5831 28.5264 32.1386C29.72 30.8488 30.5445 29.2935 31.2935 27.7285C31.6004 27.0866 31.9536 26.4009 32.0352 25.6507C32.0462 25.5472 32.0791 25.4363 32.1911 25.4144C32.3081 25.3913 32.3592 25.496 32.4079 25.5873C32.587 25.9271 32.7575 26.2596 32.7502 26.6701C32.7319 27.7236 32.8147 28.782 32.7246 29.8282C32.6369 30.8463 32.3251 31.8365 31.9439 32.7914C31.3544 34.2724 30.5506 35.6413 29.7261 37.0005C29.4849 37.3988 29.5896 37.7422 29.8405 38.1186C30.3277 38.8481 30.7491 39.6227 31.2192 40.3644C31.3958 40.6421 31.302 40.8516 31.1571 41.0854C29.8137 43.2643 28.4558 45.4346 27.1416 47.6318C26.8116 48.1847 26.4255 48.7048 26.1295 49.2735C25.9079 49.6986 25.7313 49.5451 25.4925 49.3344C25.182 49.0592 25.0443 48.6695 24.8361 48.3309C23.7071 46.5028 22.6122 44.6527 21.5014 42.8125C21.1677 42.2595 20.8267 41.7115 20.4869 41.1622C20.2762 40.8211 20.2652 40.4801 20.4771 40.1342C20.9217 39.412 21.3333 38.6679 21.8168 37.9712C22.0799 37.5912 22.0775 37.2319 21.8497 36.9165C20.8535 35.5378 20.2409 33.9606 19.4772 32.4625C19.3286 32.1702 19.3262 31.8426 19.219 31.5345C18.6649 29.9414 18.6831 28.2826 18.8 26.6311C18.8305 26.2316 19.0704 25.8468 19.2531 25.3474Z" fill="#f7f7f7"/>
</svg>
