<svg width="51" height="50" viewBox="0 0 51 50" fill="none" xmlns="http://www.w3.org/2000/svg">
<path d="M39.497 13.8763C40.4177 14.513 41.0482 15.391 41.7556 16.1838C42.48 16.9948 43.1386 17.8668 43.7947 18.7363C45.1338 20.5096 46.4522 22.2963 47.5656 24.2269C48.1986 25.3245 48.8462 26.4196 49.3474 27.5782C49.8145 28.6576 50.2938 29.7479 50.4768 30.9296C50.4804 30.9491 50.4829 30.9699 50.4841 30.9894C50.5121 31.3272 50.9695 31.7516 50.5646 31.9626C50.2353 32.1346 49.9816 31.604 49.7511 31.3553C48.0547 29.5247 45.9156 28.3429 43.7106 27.2916C42.4337 26.6831 41.0714 26.244 39.6933 25.8855C39.3043 25.7842 38.9201 25.655 38.5262 25.5781C38.1652 25.5086 37.9042 25.6196 37.6761 25.9782C36.9615 27.0989 36.2261 28.2124 35.215 29.1051C33.9833 30.193 32.6247 31.0845 31.127 31.765C30.9734 31.8345 30.8221 31.9272 30.6733 31.8223C30.4843 31.6906 30.6746 31.5333 30.6795 31.387C30.7148 30.1906 31.2429 29.0966 31.3953 27.9222C31.5258 26.9172 32.1698 26.1928 32.8796 25.522C33.1101 25.305 33.4857 25.0281 33.3698 24.7452C33.2418 24.4354 32.7893 24.6269 32.4795 24.5976C31.7173 24.5244 30.949 24.6842 30.1843 24.4622C29.8245 24.3573 29.5867 24.6086 29.5367 24.9976C29.3574 26.394 29.0916 27.7831 28.8355 29.1612C28.6001 30.4272 28.5684 31.7162 28.272 32.9675C27.9196 34.4591 27.7549 35.9811 27.5695 37.4995C27.5305 37.819 27.3939 38.1153 27.3281 38.4336C27.0634 39.724 28.044 40.4216 28.6367 41.2948C29.3709 42.3765 30.1538 43.4266 30.9307 44.4791C31.0892 44.6937 31.11 44.9169 31.1331 45.1608C31.2722 46.6255 30.8502 48.05 30.816 49.5037C30.8038 50.0013 30.5197 50.1025 30.055 49.9062C28.6733 49.3208 27.2854 48.7463 25.9012 48.1658C25.3877 47.95 25.0048 48.3171 24.5877 48.4793C23.3937 48.9451 22.2156 49.4513 21.0302 49.9403C20.807 50.033 20.6204 49.9781 20.5216 49.7586C20.4302 49.5574 20.3045 49.3354 20.3167 49.1305C20.3899 47.828 20.0204 46.5645 20.0082 45.2718C20.0058 44.9303 20.1033 44.651 20.3082 44.3754C21.4741 42.8058 22.6254 41.2252 23.7767 39.6459C23.8462 39.5508 23.9474 39.4093 23.9206 39.3239C23.7242 38.6678 23.9779 37.9324 23.734 37.3446C23.3962 36.5299 23.4059 35.6762 23.2888 34.8591C23.1462 33.8651 22.9071 32.8846 22.8083 31.8797C22.7132 30.9272 22.4888 29.9869 22.3181 29.0417C22.3034 28.9624 22.2424 28.8832 22.2522 28.81C22.39 27.7392 21.7997 26.7672 21.8449 25.7074C21.8619 25.3135 21.6132 24.9805 21.5205 24.6086C21.4839 24.4622 21.3339 24.3634 21.1839 24.4171C20.2545 24.7488 19.2935 24.5195 18.3508 24.6C18.1764 24.6147 17.9532 24.5378 17.852 24.7318C17.7373 24.9488 17.9105 25.111 18.0398 25.2647C18.13 25.3733 18.2215 25.4854 18.3301 25.5733C19.4143 26.4562 19.8509 27.6343 20.0801 28.9832C20.196 29.6637 20.3046 30.3747 20.5619 31.0369C20.6582 31.2833 20.729 31.5809 20.5167 31.7833C20.2777 32.0102 20.0911 31.7199 19.8777 31.6394C17.7703 30.8491 16.18 29.3734 14.7262 27.7307C14.3152 27.266 13.9567 26.7331 13.6823 26.1782C13.3835 25.5733 12.9213 25.4489 12.3773 25.6086C11.0699 25.9928 9.75647 26.3745 8.50275 26.9172C7.24781 27.4599 5.99652 28.0112 4.81476 28.71C4.43303 28.9356 4.04643 29.1771 3.71349 29.4405C2.86345 30.1101 1.92926 30.6906 1.23654 31.5504C1.13166 31.6809 1.02189 31.9004 0.806026 31.8065C0.602358 31.7175 0.679194 31.4894 0.664559 31.315C0.618216 30.7711 0.859694 30.2796 1.01824 29.7918C1.48777 28.3392 2.11341 26.9441 2.85125 25.6037C3.23664 24.9025 3.65617 24.2195 4.05985 23.528C4.76964 22.3085 5.59407 21.1669 6.42094 20.0266C6.80023 19.5022 7.17219 18.9668 7.60636 18.49C8.43567 17.579 9.12595 16.557 9.97478 15.6557C10.4211 15.1813 10.7992 14.6215 11.2626 14.1459C11.3651 14.041 11.4419 13.8215 11.6395 13.9154C11.8151 13.9983 11.748 14.202 11.7553 14.3569C11.7651 14.5995 11.7553 14.8435 11.7566 15.0874C11.7602 16.0594 12.3042 16.5826 13.1847 16.9948C14.1652 17.4546 14.9799 17.1326 15.858 16.8362C17.3776 16.3216 18.9081 15.8386 20.4228 15.3106C20.7607 15.1923 20.957 15.2874 21.1558 15.5167C22.5449 17.1216 23.9474 18.7156 25.3097 20.3425C25.5499 20.6291 25.7133 20.5864 25.8829 20.3937C26.7854 19.3644 27.6891 18.3351 28.5537 17.2741C29.0903 16.6143 29.6453 15.9752 30.2636 15.3947C30.4087 15.2581 30.5758 15.1837 30.8148 15.2776C31.621 15.5935 32.4332 15.8935 33.2552 16.1667C34.3955 16.5448 35.5321 16.9472 36.6944 17.2411C38.3103 17.6497 39.9067 15.935 39.4421 14.3483C39.4006 14.2129 39.3628 14.0739 39.497 13.8763Z" fill="#f7f7f7"/>
<path d="M25.5194 0C25.9804 0.414655 26.1097 0.99639 26.267 1.50129C26.6731 2.80623 27.239 4.04898 27.6439 5.35636C28.1403 6.9601 28.8379 8.50042 29.4306 10.0737C29.6013 10.5261 29.5831 10.9493 29.2306 11.3713C28.222 12.5811 27.2512 13.8226 26.2719 15.0568C25.6694 15.8166 25.378 15.8081 24.8401 14.9946C24.1267 13.9165 23.3144 12.9165 22.4559 11.9518C22.1778 11.6396 21.9241 11.2932 21.7278 10.9249C21.4717 10.4456 21.8473 10.0237 21.9949 9.61389C22.4998 8.21748 23.0144 6.82473 23.4815 5.4149C23.6706 4.84414 23.9669 4.30997 24.1572 3.74043C24.5718 2.49524 24.9718 1.24518 25.5194 0Z" fill="#f7f7f7"/>
<path d="M16.3348 12.9019C15.93 12.9019 15.5251 12.8958 15.1202 12.9031C14.7433 12.9105 14.4482 12.719 14.3811 12.3885C14.1396 11.2031 13.6445 10.1006 13.2823 8.95661C12.9383 7.86997 12.6164 6.77479 12.2761 5.68693C12.2347 5.554 12.1237 5.41741 12.2932 5.31496C12.4286 5.23203 12.553 5.30764 12.6822 5.38692C14.3933 6.44428 16.1117 7.48824 17.8739 8.46146C18.2215 8.65293 18.5337 8.91148 18.8825 9.11515C19.1862 9.29321 19.0935 9.67005 18.9496 9.93958C18.6691 10.4677 18.5923 11.0555 18.4728 11.6165C18.2325 12.7531 18.1191 12.9044 17.0007 12.9044C16.7776 12.9044 16.5556 12.9044 16.3324 12.9044C16.3348 12.9044 16.3348 12.9031 16.3348 12.9019Z" fill="#f7f7f7"/>
<path d="M34.8833 12.9055C34.6809 12.9055 34.4784 12.9055 34.276 12.9055C33.0942 12.9043 32.9844 12.8896 32.7613 11.7347C32.6344 11.081 32.3369 10.4846 32.2612 9.81388C32.2173 9.43093 32.2564 9.18214 32.5649 8.99554C33.7662 8.26746 34.9699 7.54425 36.1773 6.82714C36.9542 6.36614 37.7396 5.91978 38.5225 5.46976C38.6518 5.39537 38.7823 5.21365 38.9408 5.39658C39.0579 5.53195 39.0128 5.70514 38.9506 5.85758C38.3164 7.44181 37.8701 9.08457 37.4017 10.7212C37.231 11.32 36.9883 11.8981 36.7724 12.4835C36.6578 12.7957 36.4005 12.8945 36.0968 12.8994C35.6919 12.9055 35.287 12.9006 34.8821 12.9006C34.8833 12.9018 34.8833 12.903 34.8833 12.9055Z" fill="#f7f7f7"/>
</svg>
