<svg width="51" height="50" viewBox="0 0 51 50" fill="none" xmlns="http://www.w3.org/2000/svg">
<path d="M25.7901 19.1313C25.8194 20.0986 25.49 20.8708 24.7691 21.4612C24.4287 21.7406 24.0286 21.8638 23.5809 21.8577C22.91 21.8479 22.2391 21.8662 21.5681 21.8589C21.1814 21.8552 21.0387 22.0333 21.0143 22.4115C20.9253 23.8083 20.9155 23.8083 22.2598 23.9815C22.3403 23.9912 22.422 24.0144 22.5013 24.0095C24.5324 23.89 26.5342 24.3755 28.5653 24.3035C29.6864 24.2633 30.2878 24.9135 30.5866 25.9979C30.9075 27.1617 31.1588 28.3401 31.4198 29.5136C31.576 30.2175 31.6772 30.936 31.8699 31.6349C32.0871 32.4266 32.1212 33.2537 32.3994 34.0442C32.6019 34.62 32.6799 35.2592 32.7787 35.8618C33.0544 37.5477 33.4045 39.225 33.8388 40.8608C34.1169 41.905 33.7315 42.3588 33.0984 42.9553C30.744 45.1694 28.3067 47.2956 26.0646 49.6293C25.673 50.0367 25.3302 50.1343 24.8545 49.6781C22.7551 47.6592 20.6252 45.6708 18.5026 43.6751C18.1208 43.3164 17.7194 42.9773 17.3266 42.6296C16.868 42.2222 16.6484 41.5171 16.957 41.006C17.2193 40.5705 17.3132 40.0911 17.4157 39.641C17.7304 38.2698 18.1586 36.9292 18.5294 35.5776C18.7807 34.6602 18.9076 33.688 19.3541 32.8182C19.4834 32.5657 19.4834 32.2668 19.2845 32.0119C18.2294 30.6615 17.3645 29.1757 16.3288 27.818C15.4346 26.6457 14.7613 25.3221 13.7841 24.2206C13.1693 23.5277 13.384 22.8714 13.7805 22.231C14.4087 21.2148 14.699 20.0498 15.276 19.013C15.6371 18.364 15.8652 17.6491 16.2678 17.0172C16.3691 16.8587 16.4544 16.7867 16.6521 16.816C17.8671 17.0002 19.0747 17.221 20.2909 17.3991C21.645 17.5967 22.9905 17.8651 24.358 18.0005C24.7898 18.0432 25.1912 18.2725 25.6303 18.3676C26.0243 18.453 25.7084 18.8995 25.7901 19.1313Z" fill="#f7f7f7"/>
<path d="M46.5877 0C47.2476 0.602616 47.3794 1.36992 47.7087 2.02621C48.3479 3.29975 48.7749 4.66235 49.2104 6.00908C49.5227 6.97766 49.7325 7.99259 49.9765 8.98679C50.2021 9.90901 50.268 10.8483 50.4595 11.7705C50.623 12.5561 50.6303 13.3795 50.6425 14.1883C50.6669 15.7424 50.6559 17.2868 50.3583 18.8372C50.096 20.2035 49.8679 21.5746 49.2787 22.8299C48.681 24.1034 48.1247 25.4087 47.2293 26.5285C46.384 27.5861 45.5788 28.6779 44.5554 29.5758C44.0089 30.0552 43.4245 30.4894 42.8573 30.9457C42.5475 31.1945 42.2791 31.1445 42.001 30.8761C41.5252 30.415 41.1312 29.8563 40.4603 29.6306C39.7674 29.3977 39.1172 29.1793 38.3267 29.3013C37.1617 29.4818 36.2627 30.0442 35.4051 30.7712C34.944 31.1616 34.905 31.0713 34.6195 30.5626C34.2914 29.9795 34.4158 29.3306 34.1877 28.745C34.062 28.4242 34.3914 28.3217 34.5756 28.2156C35.2807 27.8082 35.9382 27.341 36.5408 26.7945C37.2642 26.1394 37.8863 25.4111 38.2938 24.5121C38.406 24.2644 38.4682 24.0217 38.4731 23.7533C38.5085 21.7478 38.5597 19.7424 38.578 17.7357C38.5841 16.9879 38.5487 16.2353 38.4682 15.4924C38.3962 14.8287 38.6658 14.3676 39.1465 13.9687C40.2529 13.0502 41.2971 12.056 42.1888 10.9337C43.4868 9.29907 44.5176 7.5083 45.2275 5.52601C45.5252 4.6965 45.8716 3.86089 46.079 3.02284C46.2876 2.17869 46.4815 1.2955 46.5145 0.403779C46.5194 0.306189 46.5499 0.208598 46.5877 0Z" fill="#f7f7f7"/>
<path d="M4.08008 0.012207C4.45702 1.62122 4.71319 3.14971 5.19138 4.61844C5.47073 5.47479 5.83059 6.3104 6.21363 7.12771C7.0224 8.85261 8.04343 10.4531 9.34626 11.8474C10.421 12.9977 11.5469 14.1017 12.9522 14.8714C13.5182 15.1813 13.5292 15.5168 13.2523 16.145C12.7814 17.2099 12.3813 18.3054 11.9409 19.3825C11.4408 20.6073 10.9345 21.8284 10.4197 23.047C10.1843 23.6045 10.2636 24.0802 10.6186 24.578C11.4822 25.7856 12.2898 27.0323 13.1498 28.2424C13.4072 28.6047 13.6829 28.9512 13.8964 29.3428C13.9525 29.4465 14.0672 29.5428 13.9391 29.6587C13.8537 29.7368 13.7488 29.6978 13.6548 29.6526C12.2056 28.9707 10.8528 29.2013 9.56827 30.0832C9.31332 30.2589 9.09496 30.4589 8.95224 30.7407C8.74242 31.1579 8.45941 31.197 8.06173 30.953C6.85528 30.215 5.94282 29.15 4.93642 28.19C3.5104 26.8323 2.60281 25.1147 1.75378 23.3825C1.20728 22.2687 0.888894 21.0574 0.613204 19.8351C0.166731 17.8528 -0.161414 15.8486 0.08378 13.8382C0.292378 12.1292 0.446082 10.4043 0.903533 8.71842C1.15971 7.77302 1.31829 6.78981 1.64521 5.8627C2.04533 4.72822 2.34664 3.55349 2.90656 2.47756C3.31156 1.69807 3.4799 0.802683 4.08008 0.012207Z" fill="#f7f7f7"/>
<path d="M35.6662 18.3822C35.6662 19.8826 35.6552 21.3831 35.6735 22.8835C35.6796 23.3397 35.5625 23.7118 35.2295 24.029C34.9074 24.3352 34.6183 24.6767 34.2889 24.9744C33.7059 25.5001 33.3338 25.394 33.124 24.6352C32.7141 23.1543 31.7943 22.2101 30.3049 21.7624C29.8132 21.6148 29.3448 21.4746 28.8313 21.4843C28.4787 21.4904 28.3018 21.3514 28.4189 20.9525C28.8178 19.6045 29.207 18.2529 29.5876 16.8988C29.8999 15.7887 29.8913 15.8058 28.6702 15.7631C27.4369 15.7204 26.2268 15.4984 25.0277 15.2154C24.9887 15.2056 24.9472 15.1837 24.9094 15.1873C23.6993 15.3374 22.5575 14.8763 21.3791 14.7445C20.3556 14.6299 19.276 14.7092 18.2904 14.2517C18.05 14.1407 17.7304 14.1822 17.4474 14.1871C17.029 14.1956 16.8668 14.0016 16.8704 13.5954C16.8814 12.5207 16.8643 11.446 16.8814 10.3713C16.8899 9.7821 17.2437 9.47713 17.839 9.42102C19.0772 9.30635 20.2336 9.71257 21.4242 9.92238C22.2574 10.07 23.0905 10.2066 23.9188 10.3847C24.7996 10.5738 25.7218 10.5579 26.5611 10.9507C26.666 10.9995 26.8002 11.0068 26.9197 11.0007C28.0127 10.9483 29.0155 11.4472 30.0694 11.529C31.0014 11.6009 31.8651 11.9352 32.7909 12.0218C33.5302 12.0913 34.3133 12.1255 35.0136 12.5049C35.4881 12.7622 35.6674 13.1172 35.6637 13.6345C35.6528 15.2166 35.6601 16.7976 35.6601 18.3797C35.6613 18.3822 35.6637 18.3822 35.6662 18.3822Z" fill="#f7f7f7"/>
<path d="M16.2751 33.1573C16.0494 33.5537 16.0531 34.0917 15.8909 34.5894C15.4932 35.8068 15.0211 37.0084 14.732 38.2514C14.5234 39.148 14.166 39.9922 13.9976 40.9046C13.7378 42.3209 12.8168 43.3566 11.786 44.3337C10.6113 45.4462 9.53534 46.6624 8.4155 47.8335C7.94097 48.33 7.4457 48.807 6.99191 49.3218C6.69548 49.6572 6.45516 49.6377 6.14776 49.3522C5.14258 48.4178 4.11301 47.5078 3.1176 46.5624C2.19294 45.6853 1.29389 44.7814 0.396069 43.8787C0.206989 43.6884 -0.111397 43.4566 0.137456 43.1626C0.461942 42.7784 0.414367 42.0391 1.18654 42.0611C1.91725 42.0818 2.65283 42.0147 3.38109 42.0684C4.22158 42.1306 4.96326 41.8147 5.74276 41.6097C7.81166 41.0657 9.11448 39.5055 10.5308 38.0916C11.8311 36.7937 13.1266 35.4896 14.4234 34.188C14.865 33.7452 15.3041 33.3 15.7506 32.862C15.8591 32.7559 15.9616 32.5717 16.1531 32.6839C16.2898 32.7632 16.2617 32.9316 16.2751 33.1573Z" fill="#f7f7f7"/>
<path d="M50.6572 43.852C50.6742 44.0764 50.551 44.2618 50.3595 44.4424C48.4907 46.199 46.6194 47.9544 44.7713 49.733C44.4102 50.0806 44.1382 50.0916 43.8064 49.75C42.4523 48.3582 41.058 47.0017 39.754 45.5634C39.0867 44.8279 38.3548 44.1618 37.6851 43.4323C37.4106 43.1335 37.2569 42.8285 37.2178 42.4174C37.1569 41.7843 36.8665 41.2 36.7811 40.5583C36.6665 39.7056 36.4018 38.8761 36.2346 38.0271C36.1078 37.3842 35.9516 36.7389 35.7747 36.1058C35.6076 35.5093 35.7247 34.8457 35.3405 34.2992C35.3039 34.2467 35.3502 34.0832 35.41 34.0271C35.5515 33.8966 35.6845 34.0283 35.7796 34.115C36.2285 34.5224 36.6762 34.9311 37.1032 35.3604C38.5438 36.8036 39.9845 38.2467 41.4069 39.7068C42.3206 40.6449 43.366 41.4098 44.5688 41.8916C45.2214 42.1539 45.8972 42.4296 46.6548 42.4345C47.7222 42.4418 48.7737 42.7382 49.8557 42.6736C50.2009 42.654 50.6462 43.3433 50.6572 43.852Z" fill="#f7f7f7"/>
<path d="M25.34 7.16069C25.268 7.10701 25.2058 7.06187 25.1448 7.0143C24.5568 6.55319 23.9774 6.07866 23.3772 5.63341C22.7538 5.17107 23.032 4.62335 23.3016 4.18298C24.0384 2.97287 24.3628 1.57368 25.1265 0.381865C25.1997 0.268417 25.157 0.0634796 25.3314 0.0390822C25.5303 0.0110252 25.6047 0.207424 25.6681 0.34039C26.0353 1.10403 26.3793 1.87864 26.7416 2.64472C27.0148 3.22294 27.2783 3.80848 27.5931 4.36474C27.9602 5.01371 27.9114 5.25647 27.2954 5.68952C26.7331 6.08476 26.1951 6.51659 25.6461 6.93135C25.5498 7.00332 25.4534 7.07529 25.34 7.16069Z" fill="#f7f7f7"/>
<path d="M34.1048 6.63605C33.9425 6.63605 33.7803 6.63605 33.618 6.63605C32.5946 6.63605 32.2347 6.32255 32.142 5.29542C32.1054 4.89286 32.0871 4.50128 31.9273 4.11458C31.7858 3.77302 31.9273 3.50831 32.2871 3.33387C33.4973 2.74711 34.6903 2.12253 35.9053 1.54432C36.209 1.40037 36.4469 1.11004 36.8251 1.11614C36.9373 1.11736 37.052 0.978296 37.1605 1.09296C37.2557 1.19421 37.2044 1.31742 37.163 1.43453C36.7519 2.5873 36.4774 3.77424 36.2444 4.97337C36.1602 5.40643 36.0102 5.82728 35.8845 6.25179C35.8016 6.52992 35.5771 6.61654 35.3197 6.62264C34.9148 6.63239 34.5098 6.62507 34.1035 6.62507C34.1048 6.62873 34.1048 6.63239 34.1048 6.63605Z" fill="#f7f7f7"/>
<path d="M16.5764 6.63614C16.3325 6.63614 16.0897 6.63736 15.8457 6.63614C15.0504 6.63126 14.732 6.37631 14.6954 5.57852C14.6612 4.83561 14.3782 4.1659 14.1891 3.46936C14.0269 2.87284 14.0879 2.22387 13.739 1.66883C13.6622 1.54684 13.6951 1.33946 13.8549 1.23334C14.0086 1.13209 14.1611 1.1882 14.3124 1.26749C15.5981 1.93598 16.8899 2.59227 18.2379 3.13267C18.8393 3.37421 19.0357 4.06344 18.7393 4.83805C18.6673 5.02591 18.5551 5.20402 18.5099 5.39676C18.2233 6.63492 18.2269 6.63492 16.9424 6.63614C16.8192 6.63614 16.6984 6.63614 16.5764 6.63614Z" fill="#f7f7f7"/>
</svg>
