<svg width="50" height="50" viewBox="0 0 50 50" fill="none" xmlns="http://www.w3.org/2000/svg">
<path d="M21.2068 45.7492C19.7652 44.0207 18.1193 42.8234 16.3543 41.7513C14.9819 40.9186 13.4686 40.4482 11.9941 39.8757C11.593 39.7201 11.1238 39.6605 10.7044 39.6204C9.6031 39.5159 8.54678 39.1573 7.41631 39.1877C5.19427 39.2472 2.9686 39.2059 0.74413 39.2035C0.000208981 39.2022 -0.0313849 39.1913 0.116913 38.4899C0.391629 37.1966 0.778157 35.9336 1.22184 34.6865C1.4224 34.1249 1.57799 33.5438 1.69954 32.9604C1.79314 32.5094 2.01803 32.2772 2.47387 32.2784C4.35433 32.2796 6.24086 32.1897 8.11282 32.3161C9.72222 32.4243 11.3559 32.6382 12.8827 33.1852C14.8263 33.8805 16.6837 34.7497 18.3648 36.0175C19.9767 37.233 21.2992 38.6905 22.6023 40.2014C23.2854 40.9928 24.0184 41.7452 24.6383 42.5876C24.8754 42.9085 25.0152 42.8088 25.2364 42.5997C26.0143 41.8619 26.6015 40.9599 27.3332 40.1832C28.6011 38.8388 29.7534 37.3886 31.2522 36.2618C32.3681 35.4219 33.5618 34.7509 34.7907 34.1054C36.2992 33.3129 37.9341 32.9227 39.5666 32.5957C40.494 32.4097 41.475 32.3198 42.4353 32.2906C43.9304 32.2456 45.4268 32.276 46.9231 32.2748C48.0889 32.2748 48.0937 32.2736 48.4001 33.4028C48.7805 34.8104 49.2072 36.2035 49.6885 37.5807C49.8137 37.9368 49.7955 38.3307 49.9559 38.6917C50.0739 38.9579 49.9268 39.1646 49.6132 39.1901C49.4321 39.2047 49.2497 39.2035 49.0674 39.2035C47.1261 39.2047 45.1849 39.2424 43.2449 39.1925C41.6987 39.1536 40.2133 39.4502 38.7157 39.7675C36.2651 40.2865 34.0832 41.3428 32.0435 42.7833C31.0164 43.509 30.1229 44.355 29.2514 45.2399C29.1468 45.3457 28.9584 45.4587 29.0447 45.6374C29.1274 45.8076 29.3328 45.7444 29.486 45.7456C30.4159 45.7517 31.347 45.776 32.2757 45.7395C32.8689 45.7164 33.0561 45.9535 33.0378 46.5211C33.0062 47.4498 33.0123 48.3809 33.0378 49.3108C33.0512 49.7958 32.8908 50.0013 32.3814 50C27.428 49.9891 22.4746 49.9891 17.5213 49.9988C17.0241 50 16.8393 49.8104 16.8515 49.3145C16.877 48.3651 16.8819 47.4133 16.8515 46.464C16.8332 45.8915 17.0824 45.7298 17.6149 45.7407C18.7623 45.7663 19.9123 45.7492 21.2068 45.7492Z" fill="#f7f7f7"/>
<path d="M15.9167 23.8655C15.6469 22.4166 16.409 21.1852 17.1505 19.9611C18.2032 18.2241 19.3798 16.5624 20.3669 14.7853C20.4471 14.6394 20.6829 14.4899 20.5164 14.3149C20.3183 14.107 20.1238 14.3125 19.9244 14.4085C19.076 14.8169 18.2555 15.2837 17.3669 15.6119C17.0691 15.7225 16.9816 15.6739 16.826 15.3955C16.0893 14.0754 15.4901 12.7334 15.2154 11.214C15.0865 10.5017 14.9261 9.80638 14.9443 9.08434C14.9953 7.08961 15.7818 5.39148 17.1019 3.9316C18.1789 2.74157 19.4795 1.83476 20.9321 1.16863C21.8426 0.751699 22.7931 0.422282 23.7303 0.063693C23.8956 0.000484 24.1254 -0.0602938 24.2299 0.115962C24.3332 0.288571 24.1157 0.410127 24.0062 0.495216C23.2234 1.10421 22.5804 1.83354 21.9775 2.62001C21.5922 3.12082 21.3381 3.67754 21.0245 4.20996C20.5796 4.96482 20.655 5.78532 20.6246 6.60339C20.5918 7.47859 21.0488 8.08029 21.6335 8.63337C21.755 8.74763 21.8973 8.823 22.0638 8.8388C23.0873 8.9324 24.016 8.70266 24.7356 7.93564C25.003 7.64998 25.1841 7.85541 25.2607 8.00736C26.018 9.5183 27.1181 10.8116 27.9325 12.2886C28.6108 13.5187 29.4422 14.6637 30.2008 15.8501C30.9277 16.9879 31.6327 18.1402 32.3778 19.2658C32.9333 20.1046 33.5241 20.9409 33.7672 21.9133C34.0176 22.9198 34.4078 23.9105 34.0735 25.0288C33.8231 25.8651 33.6444 26.7148 33.2603 27.5122C32.9917 28.0713 32.5468 28.4846 32.1845 28.9648C31.1926 30.28 30.146 31.5527 29.1311 32.8509C28.1951 34.0482 27.2639 35.2504 26.3474 36.4635C26.0204 36.8975 25.595 37.2452 25.3203 37.7289C25.1671 37.9976 24.9131 38.0085 24.6833 37.7229C24.0026 36.8781 23.2842 36.0624 22.6217 35.203C21.546 33.8063 20.4277 32.4401 19.3701 31.0312C18.3406 29.6589 17.1019 28.436 16.3738 26.8388C15.952 25.9077 15.8426 24.9534 15.9167 23.8655ZM21.2409 25.5041C21.2165 26.169 21.4803 26.8461 22.0577 27.4235C22.3957 27.7614 22.6607 28.1783 22.9658 28.5442C23.5687 29.2687 24.0366 30.1025 24.7453 30.7419C24.9763 30.951 25.1489 30.9948 25.3312 30.7176C25.8965 29.8619 26.565 29.0888 27.2166 28.2999C27.8632 27.517 28.5062 26.716 28.8089 25.7144C28.8989 25.4178 28.9402 25.0932 28.8089 24.8222C28.4746 24.1269 28.1148 23.4389 27.721 22.7764C27.0561 21.6593 26.3572 20.5616 25.6704 19.4567C25.4917 19.1698 25.3118 18.8817 25.1124 18.6094C25.0419 18.5122 24.8887 18.3359 24.7976 18.5815C24.5776 19.1795 24.1497 19.639 23.8203 20.1641C23.1833 21.1791 22.6205 22.2427 21.9422 23.2298C21.4888 23.8923 21.2469 24.5754 21.2409 25.5041Z" fill="#f7f7f7"/>
</svg>
