<svg width="51" height="50" viewBox="0 0 51 50" fill="none" xmlns="http://www.w3.org/2000/svg">
<path d="M25.2278 2.33353C26.0978 2.33353 26.9678 2.34448 27.8378 2.32866C28.3841 2.31893 28.6676 2.59149 28.8684 3.07821C29.4817 4.56025 30.0913 6.04717 30.7763 7.49636C31.1803 8.35176 31.3993 9.28868 31.9323 10.0857C31.9882 10.1709 31.9967 10.3376 31.9529 10.4312C31.4029 11.5872 31.0172 12.8101 30.5548 13.9976C30.0986 15.1694 29.6848 16.3679 29.2127 17.5336C28.8002 18.5509 28.3865 19.5803 28.0142 20.6024C27.4606 22.1221 26.8157 23.6224 26.8984 25.3673C27.0639 28.8607 26.9763 32.365 27.0444 35.8633C27.0639 36.8489 27.4849 37.7749 27.7562 38.7191C28.1249 40.004 28.5593 41.2683 28.9061 42.5605C29.0497 43.0947 29.2006 43.6373 29.3819 44.1654C29.5315 44.601 29.5851 45.0573 29.3125 45.4504C28.5313 46.5771 27.9741 47.8267 27.3365 49.0289C26.9763 49.7091 26.5748 50.0413 25.7924 49.9464C25.0732 49.8588 24.2178 50.197 23.6532 49.8089C23.1276 49.4463 22.8879 48.6615 22.5375 48.0531C22.0179 47.1526 21.648 46.1707 21.0286 45.3226C20.8571 45.0878 20.8254 44.7921 20.9094 44.5049C21.1552 43.6617 21.4436 42.8306 21.6516 41.9776C21.9789 40.6355 22.3732 39.2983 22.8562 38.0243C23.5462 36.204 23.3637 34.3727 23.388 32.5354C23.4233 29.8439 23.3466 27.1511 23.4233 24.462C23.4622 23.115 22.8429 22.0175 22.4085 20.8396C22.1408 20.1132 21.8402 19.399 21.5689 18.6738C21.345 18.0763 21.059 17.5081 20.8522 16.8972C20.4397 15.6817 19.908 14.5075 19.4213 13.3175C19.1256 12.5947 18.8299 11.8719 18.5221 11.1552C18.4113 10.8961 18.3846 10.6454 18.5208 10.3984C19.3373 8.91635 19.869 7.30775 20.4872 5.7454C20.8668 4.78536 21.4387 3.89832 21.6431 2.86162C21.7198 2.47103 22.0787 2.32014 22.4936 2.32623C23.4062 2.34448 24.3176 2.33474 25.2278 2.33353ZM25.2144 17.5762C25.6001 16.66 25.9895 15.8459 26.2864 15.0003C26.5443 14.2629 26.9167 13.5742 27.1478 12.8332C27.4557 11.8439 28.2807 10.9167 27.5518 9.77296C27.3949 9.52717 27.3486 9.20838 27.2695 8.91756C26.7293 6.93299 26.3813 6.68476 24.3298 6.82834C24.2689 6.83199 24.2081 6.83564 24.1485 6.84173C23.9428 6.86241 23.8163 6.96705 23.781 7.17877C23.6386 8.03539 23.1751 8.77642 22.9037 9.58801C22.6506 10.3449 22.4681 11.0518 22.8331 11.8488C23.3673 13.0133 23.7834 14.2325 24.2994 15.4055C24.6036 16.0978 24.7167 16.868 25.2144 17.5762Z" fill="#f7f7f7"/>
<path d="M45.3876 13.6351C45.912 14.1012 46.6141 14.1133 47.192 14.409C47.871 14.757 48.5755 15.0576 49.2849 15.3386C49.6779 15.4944 49.6427 15.655 49.521 16.0188C49.0695 17.3585 48.4672 18.624 47.7773 19.8505C47.5425 20.2678 47.2553 20.6548 46.9901 21.0551C46.7881 21.3581 46.4924 21.4226 46.1468 21.4189C45.115 21.4068 44.0831 21.4104 43.0513 21.4177C42.8359 21.4189 42.6096 21.3617 42.3432 21.5272C43.0976 22.0444 43.9383 22.2841 44.7329 22.6065C45.3802 22.8681 45.4399 22.9764 45.014 23.5179C44.8144 23.7722 44.6234 24.0326 44.4153 24.2796C43.347 25.5463 43.6001 25.1386 42.23 24.7639C41.1446 24.4658 40.0775 24.4475 38.9824 24.8004C37.813 25.1776 36.8591 25.8322 36.0475 26.729C35.9794 26.8032 35.8991 26.8665 35.8321 26.9419C34.9816 27.9105 35.0205 28.1173 36.1582 28.6868C37.7498 29.4838 38.4458 31.8127 37.6317 33.4031C36.9881 34.66 35.9355 35.3061 34.6263 35.5787C33.1187 35.8926 31.0416 34.3716 30.6863 32.8531C30.4369 31.7847 30.6243 30.8089 30.9577 29.8135C31.1487 29.2429 31.1219 28.6259 31.229 28.0334C31.3896 27.1488 31.5186 26.2337 31.7121 25.3686C32.0138 24.0216 32.0783 22.6284 32.5298 21.3082C32.7415 20.6901 32.6344 19.9977 32.8839 19.3589C33.036 18.9683 33.2282 18.7104 33.6091 18.5376C35.5571 17.6505 37.3932 16.5712 39.0006 15.1513C40.4656 13.8566 41.8759 12.4877 42.96 10.8511C43.9773 9.31554 44.8144 7.68749 45.3121 5.87691C45.8037 4.09188 46.3087 2.32754 46.2369 0.453692C46.2308 0.300377 46.1931 0.0886533 46.378 0.0253804C46.5739 -0.0415428 46.6457 0.175048 46.7321 0.294293C47.854 1.85056 48.7775 3.49809 49.4297 5.3257C50.2681 7.67167 50.4567 10.0651 50.3532 12.5145C50.3192 13.3078 50.1245 13.5049 49.3226 13.5074C48.23 13.5098 47.1373 13.5037 46.0458 13.5122C45.8341 13.5122 45.6017 13.4392 45.3876 13.6351Z" fill="#f7f7f7"/>
<path d="M8.03945 20.1875C7.68537 20.1875 7.33128 20.1875 6.9772 20.1875C5.90521 20.1875 4.82836 20.1279 3.76246 20.2082C2.99345 20.2654 2.62353 19.8955 2.31568 19.3029C1.74988 18.2163 1.31062 17.0762 0.826336 15.9543C0.702224 15.6671 0.741173 15.4858 1.02103 15.3702C2.03948 14.9468 3.05306 14.51 4.08368 14.1194C4.42073 13.9916 4.72736 13.8322 5.06563 13.6631C4.85026 13.4343 4.61543 13.5146 4.40736 13.5122C3.25385 13.5025 2.10031 13.494 0.948015 13.5134C0.373692 13.5232 0.112089 13.2177 0.102354 12.7091C0.0792353 11.4145 -0.0254119 10.1052 0.12912 8.83001C0.294603 7.46721 0.691288 6.1324 1.17679 4.82679C1.59779 3.69396 2.1636 2.64022 2.73062 1.5877C3.01292 1.06205 3.45218 0.620351 3.82451 0.143371C3.99365 -0.0732172 4.12627 -0.0427934 4.18468 0.223683C4.21023 0.340494 4.20779 0.465821 4.20414 0.586283C4.1579 1.9868 4.46088 3.33014 4.75047 4.69416C5.12889 6.47066 5.84681 8.08777 6.71316 9.64526C7.65617 11.3427 8.92649 12.7858 10.3221 14.1425C11.4732 15.2607 12.7496 16.1989 14.0565 17.0981C14.7281 17.5605 15.4692 17.9681 16.2357 18.237C17.3588 18.63 17.6387 19.5097 17.8029 20.5063C17.9636 21.4761 18.112 22.4446 18.3213 23.4071C18.4856 24.1652 18.5525 24.9476 18.7667 25.702C19.0271 26.6231 19.0635 27.5856 19.2886 28.5237C19.4906 29.3682 19.6038 30.2625 19.7778 31.1252C20.0759 32.6048 19.577 33.762 18.5038 34.7135C17.4087 35.6857 15.7697 35.8062 14.4617 35.1077C13.0125 34.3339 12.2739 33.0574 12.4041 31.5133C12.5282 30.0508 13.4432 28.924 14.8669 28.3497C15.3329 28.1611 15.3098 27.9847 15.0153 27.6561C14.6381 27.2363 14.3473 26.7484 13.9555 26.3347C13.2887 25.6314 12.5039 25.1739 11.5791 24.8733C11.0352 24.6969 10.5156 24.5777 9.94374 24.5472C9.02993 24.4986 8.18546 24.6969 7.36535 25.0534C7.07453 25.18 6.82754 25.1994 6.58783 24.9658C5.77989 24.1761 5.09726 23.2781 4.38787 22.4045C4.06786 22.0115 4.4694 21.8606 4.72249 21.7486C5.4915 21.4091 6.2678 21.0806 7.06115 20.8056C7.40915 20.6852 7.68902 20.4503 8.04432 20.3651C8.04311 20.3055 8.04188 20.2459 8.03945 20.1875Z" fill="#f7f7f7"/>
</svg>
