<svg width="51" height="50" viewBox="0 0 51 50" fill="none" xmlns="http://www.w3.org/2000/svg">
<path d="M25.8332 0.00731839C26.5612 0.00731839 27.2891 0.0243362 28.0159 0.0036764C29.5094 -0.0388585 30.9058 0.427811 32.3204 0.802118C34.8737 1.47781 37.2642 2.60924 39.7312 3.52192C41.5128 4.1806 43.2871 4.87695 45.0493 5.59762C46.7118 6.27817 48.4107 6.8761 50.0866 7.52992C50.6797 7.76082 50.7927 7.97714 50.597 8.57992C50.5788 8.63704 50.5411 8.69659 50.546 8.75249C50.6408 9.91187 50.2422 11.0153 50.1595 12.1528C50.0623 13.4763 49.9347 14.79 49.5944 16.0758C49.5847 16.1147 49.5665 16.156 49.5701 16.1937C49.7099 17.5183 49.2894 18.7895 49.1338 20.0801C49.0014 21.1775 49.1435 22.3381 48.6368 23.3857C48.5869 23.489 48.5918 23.6227 48.5894 23.743C48.5578 25.1928 48.3937 26.6244 48.006 28.0269C47.9902 28.084 47.9781 28.1484 47.9854 28.2067C48.1519 29.5338 47.6159 30.7868 47.5819 32.0981C47.5479 33.3741 46.8831 34.2916 45.8611 35.0767C44.4283 36.1765 43.1498 37.4781 41.7206 38.584C40.6062 39.4469 39.6121 40.441 38.5086 41.3172C37.4926 42.1241 36.5143 42.9967 35.553 43.8814C34.1324 45.1866 32.6084 46.3801 31.1549 47.6512C30.3674 48.3403 29.5836 49.0184 28.6089 49.4353C27.0558 50.0988 25.4929 50.1523 23.8499 49.7282C21.9784 49.2445 20.7108 47.932 19.3315 46.7446C18.2948 45.8538 17.2254 45.0007 16.1814 44.1172C15.7524 43.7538 15.3575 43.3504 14.9358 42.9797C13.9247 42.0901 12.9063 41.203 11.8757 40.3389C9.78299 38.5852 7.73402 36.7818 5.65954 35.0074C5.50763 34.8774 5.32534 34.7838 5.16006 34.6696C4.44426 34.1798 4.07238 33.5904 3.99096 32.6364C3.89495 31.4965 3.75884 30.3359 3.5085 29.2045C3.49148 29.1255 3.45744 29.0441 3.46473 28.9675C3.59477 27.6428 3.14511 26.3777 3.009 25.0822C2.89841 24.0249 2.88869 22.913 2.52532 21.8775C2.51924 21.8581 2.50952 21.8374 2.51195 21.8192C2.66265 20.5565 2.16196 19.368 2.07446 18.1247C1.99303 16.9775 1.92012 15.7999 1.57984 14.677C1.56283 14.6187 1.53487 14.5579 1.53973 14.5008C1.62237 13.3997 1.22619 12.3509 1.17758 11.2706C1.13383 10.285 0.782606 9.33826 0.883474 8.33443C0.926009 7.90422 1.0123 7.65388 1.47775 7.50075C2.32723 7.22245 3.12568 6.78374 3.97759 6.51516C5.60121 6.00474 7.13124 5.25612 8.74027 4.70924C9.87535 4.32279 10.974 3.83425 12.0945 3.40768C13.7351 2.78303 15.3939 2.20456 17.0188 1.54101C17.6532 1.28216 18.3143 1.12538 18.9438 0.873815C19.7143 0.565133 20.5395 0.497082 21.3282 0.27104C22.8072 -0.153093 24.3287 0.0620061 25.8332 0.00731839ZM25.7032 29.3515C27.8457 29.3515 29.9883 29.36 32.1296 29.3442C32.6169 29.3406 32.8211 29.5034 32.8126 30.009C32.7907 31.2814 32.7943 32.555 32.8138 33.8286C32.8211 34.3026 32.6291 34.4764 32.1661 34.4679C31.2169 34.4496 30.2666 34.4739 29.3162 34.4594C28.8884 34.4533 28.6952 34.5979 28.6964 35.0548C28.711 38.0262 28.7074 40.9964 28.7122 43.9677C28.7122 44.1452 28.6758 44.3554 28.8811 44.4502C29.0865 44.545 29.2105 44.3894 29.343 44.2582C30.3954 43.2045 31.5864 42.304 32.7251 41.3524C34.3438 39.9998 35.9188 38.595 37.5656 37.2715C39.5525 35.6746 41.4131 33.9222 43.4256 32.3533C43.5776 32.2354 43.7465 32.109 43.8097 31.8975C44.1451 30.777 44.3019 29.6067 44.3894 28.4632C44.489 27.1616 44.9921 25.9111 44.8342 24.5876C44.8269 24.5317 44.8548 24.4685 44.8743 24.4114C45.1732 23.5097 45.2218 22.5496 45.3434 21.6296C45.4734 20.6404 45.6557 19.6475 45.7274 18.6461C45.7553 18.2645 45.7408 17.8647 45.8513 17.5062C46.1442 16.5655 46.1345 15.5751 46.3071 14.6174C46.493 13.5893 46.6765 12.5235 46.7081 11.4565C46.7142 11.2365 46.7263 10.9923 46.8248 10.8063C47.1347 10.2133 46.7932 9.99694 46.3192 9.83895C45.8647 9.68826 45.3786 9.56916 44.9666 9.36986C43.484 8.65284 41.9029 8.19711 40.3959 7.55058C39.2548 7.06082 38.065 6.68651 36.9044 6.2405C34.9405 5.48338 33.0216 4.61932 30.9751 4.06758C29.5897 3.69449 28.1994 3.45143 26.7763 3.41862C24.6289 3.36879 22.4936 3.4016 20.4131 4.1016C19.5417 4.39449 18.6485 4.6339 17.8002 4.98997C16.7113 5.44692 15.5896 5.81151 14.4995 6.26967C12.9913 6.90283 11.4017 7.34276 9.89844 7.98443C8.3599 8.64068 6.76666 9.1511 5.23662 9.82437C4.84044 9.99816 4.67274 10.2157 4.66423 10.6325C4.64114 11.7858 5.03732 12.8784 5.11874 14.0256C5.20989 15.315 5.52585 16.5984 5.62307 17.8951C5.70085 18.9208 5.93905 19.9197 6.09339 20.926C6.25624 21.9857 6.18697 23.0758 6.56007 24.127C6.78368 24.759 6.68159 25.5039 6.80919 26.2064C7.11544 27.8798 7.20416 29.5897 7.54323 31.2656C7.62465 31.6666 7.73646 31.9753 8.04757 32.2439C9.35764 33.3729 10.6531 34.5153 11.9912 35.6139C13.3851 36.7587 14.7438 37.9496 16.1353 39.1005C18.1478 40.7655 20.1214 42.479 22.1145 44.167C22.2275 44.263 22.3308 44.4575 22.5155 44.3615C22.6565 44.2873 22.6103 44.1087 22.6115 43.9726C22.6152 41.0012 22.6115 38.0311 22.6224 35.0597C22.6237 34.6113 22.4402 34.4521 22.0063 34.4606C21.0973 34.4776 20.187 34.4484 19.278 34.4703C18.7785 34.4824 18.5962 34.2795 18.6035 33.7873C18.623 32.5744 18.6084 31.3616 18.612 30.15C18.6144 29.4001 18.6582 29.3552 19.4007 29.354C21.4995 29.3491 23.6008 29.3515 25.7032 29.3515Z" fill="#f7f7f7"/>
<path d="M25.6971 12.8723C27.5772 12.8723 29.456 12.8747 31.336 12.871C32.0786 12.8698 32.1746 12.7714 32.1879 12.0349C32.1964 11.5294 32.1806 11.0238 32.2025 10.5195C32.2195 10.1452 32.3885 10.0103 32.7603 10.2169C33.5369 10.6507 34.1907 11.2547 34.9199 11.753C36.1413 12.5879 37.3687 13.4118 38.5852 14.254C39.346 14.7803 40.114 15.3016 40.8286 15.8862C41.1907 16.1827 41.4095 16.6652 41.271 17.1415C41.1166 17.6751 41.0911 18.2389 40.8164 18.7518C40.5734 19.2063 40.5928 19.758 40.4567 20.2624C40.1018 21.5749 39.713 22.8801 39.4091 24.2084C39.2171 25.0482 39.0288 25.9851 38.0444 26.4178C37.5874 26.6183 37.1062 26.5855 36.6407 26.7398C35.6369 27.0728 34.5918 27.2831 33.5564 27.5152C33.0897 27.6197 32.6558 27.8567 32.1454 27.8081C31.7687 27.7716 31.5912 27.6282 31.5949 27.2503C31.5997 26.7046 31.5815 26.1589 31.5961 25.6133C31.6083 25.1818 31.4405 24.991 30.9921 24.9923C27.4751 25.0008 23.9593 25.0008 20.4422 24.9923C20.0084 24.991 19.8091 25.1454 19.8261 25.5938C19.8455 26.0982 19.8006 26.6062 19.837 27.1093C19.8796 27.706 19.5891 27.8518 19.0665 27.7947C18.6643 27.751 18.296 27.5832 17.8999 27.503C16.8438 27.2916 15.8011 27.006 14.7669 26.7009C14.2893 26.56 13.7946 26.5004 13.328 26.272C12.9087 26.0666 12.662 25.7397 12.594 25.3775C12.3934 24.3129 12.0969 23.2678 11.8636 22.2153C11.6144 21.0924 11.4893 19.9221 11.0505 18.8393C10.8974 18.4613 10.9217 18.0481 10.8488 17.6568C10.692 16.811 10.3359 16.004 10.3505 15.1205C10.3603 14.5323 10.5997 14.1106 11.1113 13.8493C12.2707 13.2551 13.4301 12.662 14.5992 12.0884C15.8764 11.4613 17.1379 10.799 18.4553 10.2533C19.0641 10.0005 19.2027 10.0662 19.2172 10.7346C19.2257 11.1186 19.2197 11.5026 19.2197 11.8867C19.2209 12.871 19.2209 12.8735 20.1785 12.8735C22.0185 12.8723 23.8572 12.8723 25.6971 12.8723Z" fill="#f7f7f7"/>
<path d="M25.6971 9.46703C24.5864 9.46581 23.4756 9.46824 22.366 9.46338C22.2129 9.46216 22.0075 9.52293 21.9285 9.34671C21.8532 9.179 22.01 9.04775 22.1145 8.9323C23.1572 7.76198 24.1999 6.59167 25.2511 5.42865C25.6983 4.93403 25.9475 4.91944 26.2951 5.42621C27.1433 6.66337 28.3683 7.56754 29.2299 8.79011C29.3515 8.96147 29.6419 9.08786 29.5204 9.33091C29.4062 9.55817 29.1206 9.46216 28.9079 9.46338C27.8372 9.47188 26.7678 9.46824 25.6971 9.46703Z" fill="#f7f7f7"/>
</svg>
