<svg width="409" height="436" viewBox="0 0 409 436" fill="none" xmlns="http://www.w3.org/2000/svg">
<mask id="mask0_402_4" style="mask-type:luminance" maskUnits="userSpaceOnUse" x="0" y="0" width="409" height="436">
<path d="M408.72 0.680176H0.719971V435.88H408.72V0.680176Z" fill="white"/>
</mask>
<g mask="url(#mask0_402_4)">
<path d="M25.29 133.28C9.62998 161.66 0.719971 194.16 0.719971 228.72C0.719971 263.28 9.62998 295.81 25.29 324.19V133.28Z" fill="#C28F2B"/>
<path d="M204.72 28.1802C188.17 28.1802 172.11 30.1802 156.7 33.8102V65.3702C171.96 61.0702 188.05 58.7102 204.72 58.7102C300.22 58.7102 377.65 134.59 377.65 228.21C377.65 270.37 361.9 308.93 335.91 338.59L330.98 355.89L320.07 394.18C373.61 358.04 408.75 297.43 408.75 228.77C408.72 117.96 317.39 28.1802 204.72 28.1802Z" fill="#C28F2B"/>
<path d="M156.7 332.8H313.17H316.59C343.07 305.6 359.38 268.77 359.38 228.21C359.38 144.49 290.15 76.6401 204.73 76.6401C187.96 76.6401 171.84 79.3101 156.71 84.1201V332.8H156.7Z" fill="#C28F2B"/>
<path d="M138.2 0.680176H21.7999L43.7799 45.5402V391.05L21.7999 435.88H288.93L313.16 350.98H138.2V0.680176Z" fill="#C28F2B"/>
</g>
</svg>
